<svg width="150" height="150" viewBox="0 0 150 150" fill="none" xmlns="http://www.w3.org/2000/svg">
    <g id="mode=light">
        <g id="Group">
            <path id="Fill 1" fill-rule="evenodd" clip-rule="evenodd" d="M129.737 100.629L75.9094 8.12769C75.8591 8.04126 75.7668 7.98804 75.6667 7.98804H63.884C63.7839 7.98804 63.6917 8.04126 63.6414 8.12769L9.81421 100.629C9.60864 100.983 9.49976 101.385 9.49976 101.794V117.538C9.49976 117.693 9.62524 117.818 9.78052 117.818H130.051H130.051V101.794C130.051 101.385 129.942 100.983 129.737 100.629" fill="#FFD6C9"/>
            <path id="Fill 4" fill-rule="evenodd" clip-rule="evenodd" d="M17.5 109.925V103.552C17.5 103.502 17.5132 103.454 17.5381 103.411L68.3223 16.1387C68.3726 16.0527 68.4644 16 68.564 16H71.3623C71.4619 16 71.5542 16.0527 71.604 16.1387L122.388 103.411C122.413 103.453 122.426 103.502 122.426 103.551V109.925C122.426 110.08 122.301 110.205 122.146 110.205H17.7798C17.625 110.205 17.5 110.08 17.5 109.925" fill="#FF4134"/>
            <path id="Fill 9" fill-rule="evenodd" clip-rule="evenodd" d="M82 57C75.925 57 71 61.925 71 68C71 74.0753 75.925 79 82 79C88.0753 79 93 74.0753 93 68C93 61.925 88.0753 57 82 57M81.75 65C83.5421 65 85 66.4582 85 68.25C85 70.0418 83.5421 71.5 81.75 71.5C79.9582 71.5 78.5 70.0418 78.5 68.25C78.5 66.4582 79.9582 65 81.75 65" fill="#002F34"/>
            <path id="Fill 10" fill-rule="evenodd" clip-rule="evenodd" d="M63.2856 64.6155L55.4006 72.5H52.2856V69.3848L60.171 61.5H63.2856V64.6155Z" fill="#002F34"/>
            <path id="Fill 11" fill-rule="evenodd" clip-rule="evenodd" d="M52.2856 64.6155L60.171 72.5H63.2856V69.3848L55.4006 61.5H52.2856V64.6155Z" fill="#002F34"/>
            <path id="Fill 12" fill-rule="evenodd" clip-rule="evenodd" d="M67.25 85.5C63.7981 85.5 61 88.2983 61 91.75C61 95.2019 63.7981 98 67.25 98C70.7019 98 73.5 95.2019 73.5 91.75C73.5 88.2983 70.7019 85.5 67.25 85.5M67.25 89.5C68.4907 89.5 69.5 90.5093 69.5 91.75C69.5 92.9907 68.4907 94 67.25 94C66.0093 94 65 92.9907 65 91.75C65 90.5093 66.0093 89.5 67.25 89.5" fill="#002F34"/>
            <path id="Combined Shape" fill-rule="evenodd" clip-rule="evenodd" d="M113.025 132.037H108.282V117.818H113.025V132.037ZM31.1685 132.037H26.4253V117.818H31.1685V132.037Z" fill="#AA133D"/>
        </g>
    </g>
</svg>
